<svg xmlns="http://www.w3.org/2000/svg" viewBox="0 0 74.5 73.03"><defs><style>.cls-1{fill:#8a92a3;}.cls-2{fill:#fff;}</style></defs><title>Recurso 167</title><g id="Capa_2" data-name="Capa 2"><g id="Capa_1-2" data-name="Capa 1"><rect class="cls-1" width="74.5" height="73.03" rx="16.46"/><path class="cls-2" d="M58.51,25.89H56.38V19.51H52.13v2.12H26.62V19.51H22.37v2.12A6.39,6.39,0,0,0,16,28v8.51a2.13,2.13,0,0,0,1.17,1.9L20,39.84,18.14,51.05a2.13,2.13,0,0,0,2.1,2.47H35.12V49.27H33.38l1.42-8.5h2.45V45H41.5V40.77H54.26a2.12,2.12,0,0,0,2.12-2.13v-8.5h2.13Zm-36.14,0h4.25V28H39.37V25.89H52.13v4.25H20.24V28A2.12,2.12,0,0,1,22.37,25.89ZM33,36.52a2.13,2.13,0,0,0-2.1,1.77l-1.83,11H22.75L24.46,39a2.12,2.12,0,0,0-1.14-2.25L20.24,35.2v-.81H52.13v2.13Z"/></g></g></svg>